<svg width="26" height="24" viewBox="0 0 26 24" fill="none" xmlns="http://www.w3.org/2000/svg">
<path d="M21.75 4.5H18V3.25C18 2.58696 17.7366 1.95107 17.2678 1.48223C16.7989 1.01339 16.163 0.75 15.5 0.75H10.5C9.83696 0.75 9.20107 1.01339 8.73223 1.48223C8.26339 1.95107 8 2.58696 8 3.25V4.5H4.25C3.25544 4.5 2.30161 4.89509 1.59835 5.59835C0.895088 6.30161 0.5 7.25544 0.5 8.25V19.5C0.5 20.4946 0.895088 21.4484 1.59835 22.1517C2.30161 22.8549 3.25544 23.25 4.25 23.25H21.75C22.7446 23.25 23.6984 22.8549 24.4017 22.1517C25.1049 21.4484 25.5 20.4946 25.5 19.5V8.25C25.5 7.25544 25.1049 6.30161 24.4017 5.59835C23.6984 4.89509 22.7446 4.5 21.75 4.5ZM10.5 3.25H15.5V4.5H10.5V3.25ZM23 19.5C23 19.8315 22.8683 20.1495 22.6339 20.3839C22.3995 20.6183 22.0815 20.75 21.75 20.75H4.25C3.91848 20.75 3.60054 20.6183 3.36612 20.3839C3.1317 20.1495 3 19.8315 3 19.5V13.25H8V14.5C8 14.8315 8.1317 15.1495 8.36612 15.3839C8.60054 15.6183 8.91848 15.75 9.25 15.75C9.58152 15.75 9.89946 15.6183 10.1339 15.3839C10.3683 15.1495 10.5 14.8315 10.5 14.5V13.25H15.5V14.5C15.5 14.8315 15.6317 15.1495 15.8661 15.3839C16.1005 15.6183 16.4185 15.75 16.75 15.75C17.0815 15.75 17.3995 15.6183 17.6339 15.3839C17.8683 15.1495 18 14.8315 18 14.5V13.25H23V19.5ZM23 10.75H3V8.25C3 7.91848 3.1317 7.60054 3.36612 7.36612C3.60054 7.1317 3.91848 7 4.25 7H21.75C22.0815 7 22.3995 7.1317 22.6339 7.36612C22.8683 7.60054 23 7.91848 23 8.25V10.75Z" fill="#009959"/>
</svg>
