<svg id="Layer_1" data-name="Layer 1" xmlns="http://www.w3.org/2000/svg" viewBox="0 0 8.82 17.54"><path d="M1.25,17.54a1.25,1.25,0,0,1-.8-.29,1.43,1.43,0,0,1-.31-.38A1.27,1.27,0,0,1,0,16.4a1.11,1.11,0,0,1,0-.48,1.12,1.12,0,0,1,.23-.43l5.6-6.7L.49,2.07a1.27,1.27,0,0,1-.23-.43,1.15,1.15,0,0,1,0-.49A1.07,1.07,0,0,1,.36.69,1.18,1.18,0,0,1,.68.31,1.29,1.29,0,0,1,1.12.06a1.27,1.27,0,0,1,.51,0,1.22,1.22,0,0,1,.49.15A1.24,1.24,0,0,1,2.5.5l6,7.5a1.25,1.25,0,0,1,.28.79,1.3,1.3,0,0,1-.28.8l-6.25,7.5a1.26,1.26,0,0,1-.47.35A1.37,1.37,0,0,1,1.25,17.54Z"/></svg>