<svg id="Layer_1" data-name="Layer 1" xmlns="http://www.w3.org/2000/svg" viewBox="0 0 21.52 20"><path d="M21.2,4.44a2.27,2.27,0,0,0-.8-.8,2.33,2.33,0,0,0-1.09-.31H5.09L4.44.82A1.09,1.09,0,0,0,4,.22,1.1,1.1,0,0,0,3.33,0H1.11A1.09,1.09,0,0,0,.33.33,1.09,1.09,0,0,0,0,1.11a1.11,1.11,0,0,0,.33.79,1.08,1.08,0,0,0,.78.32H2.49l3.07,11.4a1.11,1.11,0,0,0,.41.61,1.09,1.09,0,0,0,.7.21h10a1.1,1.1,0,0,0,.58-.16,1.09,1.09,0,0,0,.4-.45L21.3,6.54a2.15,2.15,0,0,0,.21-1.06A2.17,2.17,0,0,0,21.2,4.44ZM16,12.22H7.51L5.7,5.56H19.31Z"/><path d="M6.11,20a1.67,1.67,0,1,0-1.67-1.67A1.67,1.67,0,0,0,6.11,20Z"/><path d="M17.22,20a1.67,1.67,0,1,0-1.67-1.67A1.67,1.67,0,0,0,17.22,20Z"/></svg>