<svg id="Layer_1" data-name="Layer 1" xmlns="http://www.w3.org/2000/svg" viewBox="0 0 17 18"><defs><style>.cls-1{fill-rule:evenodd;}</style></defs><path d="M8.5,6a2.76,2.76,0,0,0-2,.88,3.12,3.12,0,0,0,0,4.24,2.71,2.71,0,0,0,4,0,3.12,3.12,0,0,0,0-4.24A2.76,2.76,0,0,0,8.5,6Z"/><path class="cls-1" d="M5.1,0A5,5,0,0,0,1.49,1.58,5.59,5.59,0,0,0,0,5.4v7.2a5.59,5.59,0,0,0,1.49,3.82A5,5,0,0,0,5.1,18h6.8a5,5,0,0,0,3.61-1.58A5.59,5.59,0,0,0,17,12.6V5.4a5.59,5.59,0,0,0-1.49-3.82A5,5,0,0,0,11.9,0ZM4.53,9A4.32,4.32,0,0,1,5.7,6a3.8,3.8,0,0,1,5.6,0,4.35,4.35,0,0,1,0,5.94,3.8,3.8,0,0,1-5.6,0A4.32,4.32,0,0,1,4.53,9Zm7.94-4.2H13.6V3.6H12.47Z"/></svg>