<svg id="Layer_1" data-name="Layer 1" xmlns="http://www.w3.org/2000/svg" viewBox="0 0 67 67"><path d="M33.5,62.81a29.29,29.29,0,1,1,20.73-8.58A29.36,29.36,0,0,1,33.5,62.81Zm0,4.19A33.49,33.49,0,1,0,9.81,57.19,33.52,33.52,0,0,0,33.5,67Z"/><path d="M26.26,21.17a2,2,0,0,1,1.11-.23,2.08,2.08,0,0,1,1.07.39L43.09,31.8a1.93,1.93,0,0,1,.65.74,2.12,2.12,0,0,1,0,1.92,2,2,0,0,1-.65.74L28.44,45.67a2.08,2.08,0,0,1-1.07.39,2.11,2.11,0,0,1-1.94-1A2.12,2.12,0,0,1,25.12,44V23a2.12,2.12,0,0,1,.31-1.09A2.05,2.05,0,0,1,26.26,21.17Z"/></svg>