<svg id="Layer_1" data-name="Layer 1" xmlns="http://www.w3.org/2000/svg" viewBox="0 0 17.5 18.33"><path d="M11.44,0H6.06C1.16,0,0,1.22,0,6.35V12c0,5.13,1.16,6.35,6.06,6.35h5.38c4.9,0,6.06-1.22,6.06-6.35V6.35C17.5,1.22,16.34,0,11.44,0Zm2.69,13.08H12.85c-.48,0-.63-.41-1.47-1.32-.78-.76-1.11-.87-1.29-.87s-.33.07-.33.46v1.2c0,.32-.1.52-.91.52A4.94,4.94,0,0,1,5,10.62a11,11,0,0,1-2-4.43c0-.2.06-.38.43-.38H4.66c.32,0,.44.15.56.51C5.85,8.25,6.9,9.9,7.33,9.9c.17,0,.24-.08.24-.5v-2c-.05-.89-.51-1-.51-1.3a.31.31,0,0,1,.33-.31h2c.27,0,.37.15.37.5V9c0,.28.11.38.2.38s.3-.1.58-.41A11.42,11.42,0,0,0,12.12,6.2a.57.57,0,0,1,.57-.38h1.25c.38,0,.47.21.38.5A18.14,18.14,0,0,1,12.63,9.4c-.14.23-.2.33,0,.59s.57.6.87,1a6.27,6.27,0,0,1,1.08,1.56C14.67,12.89,14.5,13.08,14.13,13.08Z"/></svg>