<svg id="Layer_1" data-name="Layer 1" xmlns="http://www.w3.org/2000/svg" viewBox="0 0 8.82 17.54"><path d="M7.57,0a1.23,1.23,0,0,1,.8.29,1.15,1.15,0,0,1,.31.38,1.23,1.23,0,0,1,.14.47,1.29,1.29,0,0,1-.05.48,1.14,1.14,0,0,1-.24.43l-5.6,6.7,5.4,6.71a1.1,1.1,0,0,1,.23.44,1.31,1.31,0,0,1,0,.48,1.24,1.24,0,0,1-.15.47,1.26,1.26,0,0,1-.31.38,1.26,1.26,0,0,1-1,.3,1.34,1.34,0,0,1-.48-.15A1.41,1.41,0,0,1,6.32,17l-6-7.5A1.25,1.25,0,0,1,0,8.75,1.3,1.3,0,0,1,.28,8L6.53.45A1.35,1.35,0,0,1,7,.1,1.4,1.4,0,0,1,7.57,0Z"/></svg>