<svg id="Layer_1" data-name="Layer 1" xmlns="http://www.w3.org/2000/svg" viewBox="0 0 25 22.5"><path d="M21.25,3.75H17.5V2.5A2.49,2.49,0,0,0,15,0H10A2.49,2.49,0,0,0,7.5,2.5V3.75H3.75A3.76,3.76,0,0,0,0,7.5V18.75A3.76,3.76,0,0,0,3.75,22.5h17.5A3.76,3.76,0,0,0,25,18.75V7.5a3.76,3.76,0,0,0-3.75-3.75ZM10,2.5h5V3.75H10ZM22.5,18.75A1.26,1.26,0,0,1,21.25,20H3.75A1.26,1.26,0,0,1,2.5,18.75V12.5h5v1.25a1.25,1.25,0,0,0,2.5,0V12.5h5v1.25a1.25,1.25,0,0,0,2.5,0V12.5h5Zm0-8.75H2.5V7.5A1.26,1.26,0,0,1,3.75,6.25h17.5A1.26,1.26,0,0,1,22.5,7.5Z"/></svg>