<svg xmlns="http://www.w3.org/2000/svg" viewBox="0 0 22 19.83">
    <path
        d="M11 19.55a2 2 0 01-1-.28C1.57 14.09.32 8.77.32 6.07A5.8 5.8 0 016.14.29 7.31 7.31 0 0111 2.71 7.31 7.31 0 0115.86.29a5.8 5.8 0 015.82 5.78c0 2.7-1.25 8-9.67 13.2a2 2 0 01-1.01.28z"
        fill="currentColor" />
    <path
        d="M11 19.83a2 2 0 01-1-.29C1.29 14.21 0 8.74 0 6a6 6 0 016-6 7.52 7.52 0 015 2.49A7.52 7.52 0 0116 0a6 6 0 016 6c0 2.79-1.29 8.26-10 13.59a2 2 0 01-1 .24zM6 2a4 4 0 00-4 4c0 2.32 1.17 7 9 11.84C18.83 13 20 8.32 20 6a4 4 0 00-4-4c-2.22 0-4.18 2.57-4.2 2.6a1.13 1.13 0 01-.8.4 1 1 0 01-.8-.4S8.22 2 6 2z" />
</svg>