<svg id="Layer_1" data-name="Layer 1" xmlns="http://www.w3.org/2000/svg" viewBox="0 0 16.67 16.67"><path d="M16.62,6a.89.89,0,0,0-.27-.39.83.83,0,0,0-.45-.17L11.15,5,9.09.49a.87.87,0,0,0-.3-.36A.94.94,0,0,0,8.33,0a.9.9,0,0,0-.45.13,1,1,0,0,0-.31.36L5.52,5,.77,5.42a.8.8,0,0,0-.44.17A.81.81,0,0,0,.05,6a.93.93,0,0,0,0,.47.93.93,0,0,0,.23.41l3.51,3.42L2.52,15.65a.83.83,0,0,0,0,.49.84.84,0,0,0,.77.53.89.89,0,0,0,.47-.14l4.53-3,4.54,3a.9.9,0,0,0,.48.14.84.84,0,0,0,.77-.56.78.78,0,0,0,0-.5l-1.52-5.34,3.78-3.4A.82.82,0,0,0,16.62,6Z"/></svg>