<svg width="138" height="12" viewBox="0 0 138 12" fill="none" xmlns="http://www.w3.org/2000/svg">
<path d="M0 10.9673L4.58008 0.549316H6.27272L10.8528 10.9673H8.92784L7.8658 8.47428H2.95382L1.89178 10.9673H0ZM3.60101 6.85627H7.18542L5.39321 2.71217L3.60101 6.85627Z" fill="#059B54"/>
<path d="M23.6971 11.2815L22.4525 10.1753C21.5398 10.8192 20.4777 11.1494 19.2829 11.1494C17.7064 11.1494 16.4121 10.6376 15.3998 9.59741C14.3875 8.55726 13.8731 7.30247 13.8731 5.80003C13.8731 4.33061 14.3875 3.05932 15.4164 2.01917C16.4453 0.979014 17.7396 0.450684 19.3161 0.450684C20.8926 0.450684 22.187 0.962504 23.1992 2.00266C24.2115 3.04281 24.7259 4.29759 24.7259 5.80003C24.7259 6.98878 24.3774 8.04544 23.6639 8.97002L24.8587 9.97715L23.6971 11.2815ZM19.3161 9.48184C19.9799 9.48184 20.5773 9.31673 21.0917 8.98653L19.3161 7.48409L20.4943 6.14675L22.2865 7.76476C22.635 7.21992 22.8175 6.57602 22.8175 5.80003C22.8175 4.77639 22.4857 3.90134 21.8219 3.1914C21.1581 2.48145 20.3118 2.11823 19.2829 2.11823C18.2707 2.11823 17.4243 2.46494 16.7606 3.17489C16.0968 3.88483 15.7649 4.75988 15.7649 5.78352C15.7649 6.80716 16.0968 7.68221 16.7606 8.39215C17.4409 9.11861 18.2872 9.48184 19.3161 9.48184Z" fill="#059B54"/>
<path d="M34.0188 11.1334C32.6415 11.1334 31.5629 10.7371 30.7829 9.96115C30.003 9.18517 29.6047 8.06246 29.6047 6.57653V0.632812H31.4301V6.51049C31.4301 7.45158 31.6624 8.17804 32.1271 8.68986C32.5917 9.20168 33.2389 9.46584 34.052 9.46584C34.8818 9.46584 35.5124 9.21819 35.977 8.72288C36.4416 8.22757 36.674 7.51762 36.674 6.57653V0.632812H38.4994V6.49398C38.4994 7.99642 38.1011 9.15215 37.3046 9.94464C36.508 10.7371 35.4128 11.1334 34.0188 11.1334Z" fill="#059B54"/>
<path d="M44.523 10.9683V0.632812H46.3484V10.9683H44.523Z" fill="#059B54"/>
<path d="M52.5051 10.9683V0.632812H54.3305V9.31725H59.7901V10.9683H52.5051Z" fill="#059B54"/>
<path d="M62.9597 10.9673L67.5398 0.549316H69.2324L73.8125 10.9673H71.8876L70.8255 8.47428H65.9135L64.8515 10.9673H62.9597ZM66.5773 6.85627H70.1617L68.3695 2.71217L66.5773 6.85627Z" fill="#059B54"/>
<path d="M78.0107 10.9683V0.632812H79.9523L83.1218 5.51987L86.2748 0.632812H88.2164V10.9683H86.391V3.55514L83.1052 8.42569H83.0389L79.7863 3.58816V10.9683H78.0107Z" fill="#059B54"/>
<path d="M93.7259 10.9683V0.632812H101.426V2.25083H95.5513V4.94201H100.762V6.56003H95.5513V9.33376H101.509V10.9518H93.7259V10.9683Z" fill="#059B54"/>
<path d="M106.487 10.9683V0.632812H110.37C111.996 0.632812 113.324 1.12812 114.353 2.10223C115.382 3.07634 115.896 4.31462 115.896 5.80055C115.896 7.26997 115.382 8.50824 114.353 9.49887C113.324 10.4895 111.996 10.9683 110.387 10.9683H106.487ZM108.312 9.31725H110.353C111.432 9.31725 112.295 8.98704 112.959 8.34314C113.623 7.68273 113.954 6.8407 113.954 5.81706C113.954 4.79342 113.623 3.95139 112.959 3.29098C112.295 2.63056 111.432 2.30036 110.353 2.30036H108.312V9.31725Z" fill="#059B54"/>
<path d="M120.858 10.9683V0.632812H122.683V10.9683H120.858Z" fill="#059B54"/>
<path d="M127.147 10.9673L131.727 0.549316H133.42L138 10.9673H136.075L135.013 8.47428H130.101L129.039 10.9673H127.147ZM130.748 6.85627H134.333L132.54 2.71217L130.748 6.85627Z" fill="#059B54"/>
</svg>
