<svg xmlns="http://www.w3.org/2000/svg" viewBox="0 0 34 40" width="34" height="40">
    <path
        d="M17 0a16.74 16.74 0 0117 16.46c0 6.96-5 14.54-15 22.83a3.13 3.13 0 01-2 .71 3.06 3.06 0 01-2-.72l-.66-.55C4.82 30.66 0 23.26 0 16.46A16.74 16.74 0 0117 0z"
        fill="#fff" />
    <path
        d="M17 0a16.74 16.74 0 0117 16.46c0 6.96-5 14.54-15 22.83a3.13 3.13 0 01-2 .71 3.06 3.06 0 01-2-.72l-.66-.55C4.82 30.66 0 23.26 0 16.46A16.74 16.74 0 0117 0zm0 10.13A6.63 6.63 0 0012.38 12a6.18 6.18 0 000 9 6.69 6.69 0 009.24 0 6.18 6.18 0 000-9A6.63 6.63 0 0017 10.13z"
        fill="#009959" />
</svg>