<svg id="Layer_1" data-name="Layer 1" xmlns="http://www.w3.org/2000/svg" viewBox="0 0 44 44"><defs><style>.cls-1,.cls-2{fill:#009959;}.cls-2{fill-rule:evenodd;}</style></defs><path class="cls-1" d="M10.8,10.85,5.73,5.93a17,17,0,0,0,5.07.6c3.46,0,7-.35,9.14-.35,8.54,0,15.27,2.56,15.27,8.59s-7.94,7.53-12.36,8.28c6.78,3.22,9.3,9.5,11.26,11.91a6.56,6.56,0,0,0,5.07,2.26H43.6v1.15H39.53a14.79,14.79,0,0,1-7.69-2.16c-4.16-2.51-5.47-5.77-8-9.49s-4.82-3.67-6-3.67a6.53,6.53,0,0,0-3,1.26l-4.47-3.92c.73.47,3.43,1.41,8.33,1.41,6.13,0,12-2.76,12-7.43S25.26,7.68,19.94,7.68A15.56,15.56,0,0,0,10.8,10.85Z"/><path class="cls-2" d="M1.51,1.51h41v41h-41ZM0,44V0H44V44Z"/></svg>