<svg width="368" height="82" viewBox="0 0 368 82" fill="none" xmlns="http://www.w3.org/2000/svg">
<g clip-path="url(#clip0)">
<path d="M138.719 51.118C132.349 51.118 125.916 48.8765 119.67 46.5728C113.549 44.3314 107.303 42.0276 101.058 42.0276C96.623 42.0276 92.5008 43.1484 88.6909 45.5766V55.9122C92.5008 53.6708 96.4981 52.4878 101.058 52.4878C107.428 52.4878 113.861 54.7292 120.107 57.033C126.228 59.1499 132.474 61.5781 138.595 61.5781C143.716 61.5781 148.275 60.0216 152.647 56.7839V46.5728C148.338 49.686 143.841 51.118 138.719 51.118Z" fill="#FF5252"/>
<path d="M119.67 26.3373C113.55 24.0959 107.304 21.7921 101.058 21.7921C96.6235 21.7921 92.5013 22.9129 88.6914 25.3411V35.6767C92.5013 33.4353 96.4986 32.2523 101.058 32.2523C107.429 32.2523 113.862 34.4937 120.108 36.7975C126.228 38.9144 132.474 41.3426 138.595 41.3426C143.717 41.3426 148.276 39.7861 152.648 36.5484V26.3373C148.401 29.3259 143.717 30.758 138.595 30.758C132.287 30.8825 125.916 28.5788 119.67 26.3373Z" fill="#FF5252"/>
<path d="M120.107 77.4551C126.227 79.6965 132.473 82.0003 138.594 82.0003C143.715 82.0003 148.275 80.4437 152.647 77.206V66.995C148.4 69.9836 143.715 71.4156 138.594 71.4156C132.223 71.4156 125.79 69.1741 119.544 66.8704C113.424 64.629 107.178 62.3253 100.932 62.3253C96.4975 62.3253 92.3753 63.446 88.5654 65.8742V76.2098C92.3753 73.9684 96.3726 72.7854 100.932 72.7854C107.553 72.9099 113.986 75.2136 120.107 77.4551Z" fill="#FF5252"/>
<path d="M302.794 31.1314C298.36 27.1466 292.676 25.1541 285.181 25.1541C277.686 25.1541 271.94 27.1466 267.568 31.1314C260.76 37.3576 259.886 46.0122 259.886 51.9271C259.886 57.8421 260.76 66.3721 267.568 72.7229C272.003 76.7077 277.686 78.7001 285.181 78.7001C292.739 78.7001 298.422 76.7077 302.794 72.7229C309.602 66.4966 310.477 57.8421 310.477 51.9271C310.477 46.0122 309.665 37.3576 302.794 31.1314ZM295.986 56.0365C295.986 58.5892 295.986 62.8231 292.864 65.8117C290.99 67.4928 288.304 68.489 285.618 68.489C282.933 68.489 280.247 67.4928 278.373 65.8117C275.251 62.8231 275.251 58.5892 275.251 56.0365V46.8216C275.251 44.2688 275.251 40.0349 278.373 37.0463C280.247 35.3652 282.933 34.369 285.618 34.369C288.304 34.369 290.99 35.3652 292.864 37.0463C295.986 40.0349 295.986 44.2688 295.986 46.8216V56.0365ZM235.028 76.8945V36.7973L229.469 26.0258H249.206V76.8945H235.028ZM339.082 36.1124C337.833 36.7973 336.209 37.9803 335.272 38.6652L334.96 38.9765V76.9568H320.907V36.1747L315.348 26.0881H332.399V31.6295L333.523 30.5087C335.397 28.8277 337.084 27.5201 339.207 26.7107C342.08 25.4655 344.578 24.8428 348.326 24.8428C354.697 24.8428 359.381 26.3994 362.816 29.6371C368.062 34.6181 368.062 40.9689 368.062 44.7669V77.0813H354.009V43.3971C354.009 41.1557 354.009 38.6029 351.761 36.486C350.2 35.0539 347.951 34.2445 345.39 34.2445C342.767 34.2445 340.644 35.2407 339.082 36.1124ZM58.148 34.2445C54.7128 34.2445 51.9022 36.2369 49.7787 38.0425L49.4664 38.1671V76.8945H35.4134V42.0274C35.4134 40.9066 35.4134 38.2293 33.4148 36.0501C32.1656 34.8049 30.4168 34.0577 28.1684 34.0577C24.7332 34.0577 21.9226 36.0501 19.799 37.8557L19.4868 37.9803V76.6454H5.55872V35.9879L0 25.7768H17.0509V31.1314L19.2994 29.2635C23.1093 26.1504 27.6687 24.5938 33.1025 24.5938C38.5363 24.5938 42.4711 26.2749 45.594 30.1352L46.1561 30.8201L46.7183 30.1352C49.8411 26.4617 54.0883 24.5938 59.647 24.5938C68.5784 24.5938 79.3836 27.8315 79.3836 43.7085V76.8322H65.3306V42.0274C65.3306 40.7821 65.3306 38.0425 63.332 36.0501C62.0828 34.8049 60.2716 34.2445 58.148 34.2445ZM201.488 34.6804L190.808 39.6614C189.684 37.4199 187.248 35.9879 184.562 35.9879C182.126 35.9879 179.878 36.9841 178.754 38.5406C177.317 40.2217 176.63 43.0858 176.63 46.8838V76.8945H162.577V25.9013H174.382V33.8087L176.817 30.3842C177.817 28.9522 181.502 24.5938 189.059 24.5938C190.496 24.5938 195.055 24.5938 197.99 26.8352C199.115 28.0182 201.363 30.571 201.488 34.6804ZM249.268 10.7092C249.268 15.3789 245.583 19.0524 240.899 19.0524C236.215 19.0524 232.53 15.3789 232.53 10.7092C232.53 6.03949 236.215 2.36598 240.899 2.36598C245.396 2.36598 249.268 6.03949 249.268 10.7092ZM220.1 0V76.8945H206.048V0H220.1Z" fill="#202020"/>
</g>
<defs>
<clipPath id="clip0">
<rect width="368" height="82" fill="white"/>
</clipPath>
</defs>
</svg>
