<svg id="Layer_1" data-name="Layer 1" xmlns="http://www.w3.org/2000/svg" xmlns:xlink="http://www.w3.org/1999/xlink" viewBox="0 0 200.03 44.7"><defs><style>.cls-1{fill:none;}.cls-2{clip-path:url(#clip-path);}.cls-3{fill:#ff5252;}.cls-4{fill:#202020;}</style><clipPath id="clip-path"><rect class="cls-1" width="200" height="44.7"/></clipPath></defs><g class="cls-2"><path class="cls-3" d="M75.39,27.87c-3.46,0-7-1.22-10.35-2.48s-6.72-2.48-10.12-2.48a12.14,12.14,0,0,0-6.72,1.94v5.63a12.85,12.85,0,0,1,6.72-1.86c3.46,0,7,1.22,10.36,2.47s6.72,2.48,10,2.48A12.42,12.42,0,0,0,83,31V25.39A12.4,12.4,0,0,1,75.39,27.87Z"/><path class="cls-3" d="M65,14.36c-3.33-1.22-6.72-2.48-10.12-2.48a12.14,12.14,0,0,0-6.72,1.94v5.63a12.86,12.86,0,0,1,6.72-1.87c3.46,0,7,1.23,10.36,2.48s6.72,2.48,10,2.48A12.42,12.42,0,0,0,83,19.93V14.36a12.91,12.91,0,0,1-7.64,2.41C71.89,16.84,68.43,15.58,65,14.36Z"/><path class="cls-3" d="M65.28,42.23c3.32,1.22,6.72,2.47,10,2.47A12.36,12.36,0,0,0,83,42.09V36.52a12.91,12.91,0,0,1-7.64,2.41c-3.46,0-7-1.22-10.35-2.47S58.25,34,54.85,34a12.21,12.21,0,0,0-6.72,1.93v5.64a12.89,12.89,0,0,1,6.72-1.87C58.45,39.75,62,41,65.28,42.23Z"/><path class="cls-4" d="M164.56,17c-2.41-2.17-5.5-3.26-9.57-3.26s-7.2,1.09-9.57,3.26c-3.7,3.4-4.18,8.11-4.18,11.34s.48,7.87,4.18,11.34c2.41,2.17,5.5,3.26,9.57,3.26s7.2-1.09,9.57-3.26c3.7-3.4,4.18-8.12,4.18-11.34S168.3,20.37,164.56,17Zm-3.7,13.58c0,1.39,0,3.7-1.7,5.33a6,6,0,0,1-7.87,0c-1.7-1.63-1.7-3.94-1.7-5.33v-5c0-1.4,0-3.7,1.7-5.33a6,6,0,0,1,7.87,0c1.7,1.63,1.7,3.93,1.7,5.33ZM127.73,41.92V20.06l-3-5.87h10.73V41.92Zm56.55-22.23a21.85,21.85,0,0,0-2.07,1.39l-.17.17V42h-7.63V19.72l-3-5.5h9.27v3l.61-.61a10,10,0,0,1,3.09-2.07,11.32,11.32,0,0,1,5-1c3.46,0,6,.85,7.87,2.62C200,18.87,200,22.34,200,24.41V42H192.4V23.66a4.62,4.62,0,0,0-1.23-3.77,5,5,0,0,0-3.46-1.22A6.92,6.92,0,0,0,184.28,19.69Zm-152.68-1a7.26,7.26,0,0,0-4.55,2.07l-.17.07V41.92H19.25v-19a4.63,4.63,0,0,0-1.09-3.26,3.88,3.88,0,0,0-2.85-1.08,7.16,7.16,0,0,0-4.55,2.07l-.17.07V41.79H3V19.62L0,14.05H9.27V17l1.22-1A11.44,11.44,0,0,1,18,13.41a8,8,0,0,1,6.79,3l.3.37.31-.37a8.7,8.7,0,0,1,7-3c4.85,0,10.72,1.76,10.72,10.42V41.89H35.51v-19a4.42,4.42,0,0,0-1.09-3.26A3.85,3.85,0,0,0,31.6,18.67Zm77.9.24-5.8,2.71a3.77,3.77,0,0,0-3.39-2A3.9,3.9,0,0,0,97.15,21,7.12,7.12,0,0,0,96,25.56V41.92H88.36V14.12h6.41v4.31l1.33-1.87a7.87,7.87,0,0,1,6.65-3.15c.78,0,3.26,0,4.85,1.22A6.33,6.33,0,0,1,109.5,18.91Zm26-13.07a4.55,4.55,0,1,1-9.09,0,4.5,4.5,0,0,1,4.54-4.55A4.57,4.57,0,0,1,135.47,5.84ZM119.62,0V41.92H112V0Z"/></g></svg>