<svg width="188" height="38" viewBox="0 0 188 38" fill="none" xmlns="http://www.w3.org/2000/svg">
<path fill-rule="evenodd" clip-rule="evenodd" d="M144.234 28.2568C144.234 30.3316 144.752 32.1457 145.527 33.7027C146.95 36.0364 149.538 37.4613 152.902 37.4613H153.549L154.454 33.1831L153.418 33.0545C152.902 33.0545 152.384 32.9242 151.738 32.6653C151.22 32.4064 150.831 32.1457 150.574 31.6279C150.315 31.1101 149.925 30.3316 149.925 29.4245C149.797 29.1639 149.797 28.905 149.797 28.5157C149.797 27.7373 149.925 26.9605 150.056 25.9231L155.618 0.904053H149.668L144.752 24.2376C144.493 25.6642 144.234 27.0908 144.234 28.2568Z" fill="#8CBD57"/>
<path fill-rule="evenodd" clip-rule="evenodd" d="M142.811 37.463H143.459L144.364 33.0545H143.329C142.811 32.9242 142.295 32.9242 141.648 32.6653C141.176 32.4262 140.775 32.0688 140.482 31.6279C140.095 31.1101 139.836 30.3316 139.836 29.4245C139.707 29.1639 139.707 28.905 139.707 28.5157C139.707 27.7373 139.836 26.9605 139.966 25.9231L145.27 0.904053H139.32L134.273 24.2376C134.014 25.6642 133.757 26.9622 133.757 28.3871C133.757 30.3316 134.145 32.2761 135.05 33.701C136.861 36.0364 139.448 37.4613 142.811 37.4613V37.463ZM25.2226 24.6268C24.9637 25.9231 24.8334 27.2194 24.8334 28.3871V29.2942C24.9637 30.7208 25.2226 32.0171 25.8691 33.3134C26.4547 34.5241 27.4045 35.5212 28.5852 36.165C29.8781 36.9434 31.3014 37.2024 33.1121 37.2024H33.2425C34.9246 37.2024 36.4765 36.9434 37.8997 36.165C39.27 35.558 40.4696 34.6228 41.3926 33.4421C42.4266 32.4064 43.332 30.9797 43.9801 29.5531C44.6266 28.1282 45.1445 26.5713 45.532 24.8857L45.6606 24.7571C45.9195 23.4608 45.9195 22.2931 45.9195 21.1271V20.3487C45.7909 18.9237 45.5303 17.6274 45.0141 16.4597C44.3677 15.1634 43.5926 14.2564 42.4266 13.4779C41.2623 12.6994 39.8391 12.3102 38.1586 12.3102C36.3478 12.3102 34.6657 12.5708 33.2425 13.3493C31.8209 13.9974 30.6549 15.0348 29.4906 16.0705C28.4566 17.2382 27.5495 18.5345 26.9031 19.9611C26.0613 21.4 25.4917 22.9816 25.2226 24.6268ZM30.396 29.2942C30.396 28.3871 30.5263 27.2194 30.9138 25.7945L31.3031 24.2376C31.5603 22.6824 31.9478 21.3861 32.3354 20.479C32.8549 19.5719 33.2425 18.7934 33.7603 18.2756C34.2765 17.7561 34.7943 17.3668 35.3121 17.2382C35.83 16.9793 36.3478 16.9793 36.9943 16.9793H37.5105C38.0283 16.9793 38.5461 17.1079 38.9337 17.2382C39.3229 17.4971 39.5818 17.7561 39.8391 18.1453C40.098 18.6648 40.2283 19.4416 40.2283 20.3487C40.2283 21.2574 40.098 22.4234 39.7105 23.8501L39.4515 25.5339C39.1926 27.0908 38.8051 28.2585 38.2872 29.2942C37.7694 30.3316 37.3818 30.9797 36.8657 31.4976C36.3478 32.0171 35.83 32.4064 35.3121 32.535C34.7943 32.7939 34.2781 32.7939 33.63 32.7939H33.1138C32.4657 32.7939 32.0781 32.6653 31.6906 32.535C31.3014 32.4064 31.0425 32.0171 30.7852 31.6279C30.5263 31.1101 30.396 30.4602 30.2674 29.4245V29.2942H30.396Z" fill="#8CBD57"/>
<path fill-rule="evenodd" clip-rule="evenodd" d="M154.586 24.8857C154.327 26.1821 154.327 27.4784 154.327 28.6461V29.5531C154.456 31.1101 154.716 32.4047 155.361 33.5724C155.879 34.8687 156.784 35.7757 158.079 36.5542C159.372 37.2024 160.795 37.5899 162.606 37.5899C164.417 37.7202 165.968 37.331 167.263 36.5542C168.556 35.9061 169.851 34.9973 170.756 33.9599C171.79 32.9242 172.567 31.6279 173.344 30.071C173.99 28.6461 174.636 27.0891 175.024 25.4053V25.275C175.283 23.9787 175.413 22.811 175.413 21.645V20.7379C175.283 19.3113 175.024 17.8864 174.508 16.7187C173.86 15.4224 173.085 14.5153 171.92 13.7368C170.756 12.9584 169.333 12.6994 167.52 12.6994C165.71 12.6994 164.158 12.9601 162.606 13.7368C161.184 14.385 159.89 15.4224 158.854 16.4598C157.82 17.6274 156.915 18.7934 156.266 20.3487C155.491 21.9056 154.974 23.4591 154.586 24.8857ZM159.759 29.5531C159.759 28.6461 159.89 27.4784 160.277 26.0534L160.536 24.4965C160.925 23.0716 161.313 21.645 161.7 20.7379C162.218 19.7005 162.606 19.0524 163.122 18.5345C163.642 18.015 164.158 17.6258 164.676 17.3668C165.193 17.2382 165.711 17.1079 166.227 17.1079H166.876C167.392 17.1079 167.91 17.2382 168.297 17.3668C168.815 17.4971 168.945 17.8847 169.204 18.2739C169.461 18.7934 169.72 19.4416 169.72 20.479V20.6076C169.712 21.7931 169.539 22.9716 169.204 24.109L168.945 25.6642C168.556 27.2211 168.168 28.3871 167.781 29.4228C167.263 30.4602 166.876 31.2387 166.358 31.7582C165.84 32.2761 165.322 32.6636 164.806 32.7939C164.288 32.9242 163.77 33.0528 163.124 33.0528H162.477C161.959 33.0528 161.442 32.9242 161.054 32.7939C160.657 32.544 160.343 32.1833 160.149 31.7565C159.89 31.3673 159.631 30.5888 159.631 29.6834V29.5531H159.759ZM92.876 29.8137C93.0063 31.369 93.2653 32.6653 93.9117 33.8313C94.5582 34.999 95.4636 35.9061 96.6279 36.5542C97.9208 37.2024 99.344 37.4613 101.155 37.4613C102.837 37.4613 104.39 37.2024 105.812 36.5542C107.148 36.008 108.342 35.1655 109.305 34.0902C110.341 33.0545 111.116 31.7582 111.894 30.2013C112.539 28.7764 113.187 27.0908 113.575 25.1464C113.834 23.4608 114.092 22.1645 114.092 20.7379V20.0898C113.962 18.5328 113.703 17.1079 113.187 15.9419C112.539 14.7742 111.764 13.8671 110.598 13.219C109.435 12.5708 108.012 12.3119 106.33 12.1816C105.166 12.1816 104.13 12.4405 102.967 12.7011C102.578 12.8298 102.319 12.9601 101.932 13.219L104.519 0.90406H98.6976L97.4046 6.99637L96.2403 12.3102L95.2046 17.1079L94.2993 20.9968L93.6528 23.7214L93.3939 24.7571C93.1349 26.3141 93.0046 27.739 93.0046 29.0353V29.8137H92.876ZM98.4386 29.4245C98.4386 28.5158 98.569 27.3498 98.9565 25.9231L99.2154 24.2393C99.4743 22.8127 99.8619 21.3861 100.38 20.479C100.898 19.4416 101.285 18.6648 101.801 18.1453C102.319 17.4971 102.837 17.1079 103.355 16.849C103.873 16.5901 104.39 16.4598 105.037 16.4598C105.166 16.4598 105.166 16.4598 105.296 16.5901H105.424C105.424 16.4598 105.555 16.4598 105.555 16.4598C106.071 16.4598 106.589 16.5901 106.976 16.7187C107.235 16.9793 107.624 17.2382 107.883 17.7561C108.141 18.2756 108.271 19.0524 108.271 19.9611V20.3504C108.271 21.3861 108.141 22.5538 107.753 23.9787L107.364 25.6642C107.107 27.2211 106.717 28.3871 106.332 29.4245C105.812 30.3316 105.424 31.1084 104.907 31.6279C104.39 32.1458 103.873 32.535 103.355 32.6653C102.837 32.7939 102.321 32.9242 101.673 32.9242H101.285C100.767 32.9242 100.251 32.7939 99.8636 32.6653C99.4743 32.535 99.2154 32.1458 98.8279 31.7582C98.569 31.2387 98.4386 30.5905 98.4386 29.5531V29.4245ZM114.094 29.9424C114.224 31.3673 114.741 32.6653 115.389 33.8313C116.035 34.8687 116.941 35.9061 117.975 36.4239C119.139 37.0721 120.303 37.4613 121.726 37.4613H122.116C122.891 37.4613 123.796 37.2024 124.702 36.9434C125.607 36.5542 126.512 36.165 127.291 35.7757L127.677 35.5168L127.807 32.2761L126.643 32.535C124.96 33.0528 123.926 33.3134 123.15 33.3134C122.114 33.3134 121.468 33.0528 121.08 32.6653C120.587 32.2855 120.189 31.7973 119.916 31.2387C119.65 30.5347 119.518 29.7875 119.526 29.0353V28.6461C119.526 28.1265 119.526 27.739 119.657 27.2194H133.111L133.239 26.5713C133.37 26.4427 133.37 26.1821 133.37 25.9231C133.498 25.6642 133.498 25.4053 133.498 25.275C133.757 24.1073 134.016 22.8127 134.016 21.7753V20.6076C133.905 19.2439 133.509 17.9188 132.852 16.7187C132.205 15.551 131.43 14.6456 130.264 13.9974C129.082 13.3227 127.745 12.9653 126.384 12.9601C124.962 13.0887 123.668 13.4779 122.244 13.9958C120.951 14.6456 119.785 15.5527 118.751 16.5901C117.716 17.7561 116.682 18.9221 116.035 20.3487C115.258 21.7753 114.741 23.3305 114.353 25.0161C114.094 26.0534 114.094 27.2194 114.094 28.1265C113.966 28.7747 113.966 29.2942 114.094 29.9424ZM121.209 21.2558C121.468 20.4773 121.985 19.8308 122.503 19.1827C123.019 18.5345 123.537 18.1453 124.055 17.7561C124.573 17.4971 125.091 17.2382 125.737 17.2382H125.866C126.902 17.2382 127.548 17.6274 128.066 18.5345C128.325 19.1827 128.584 19.9594 128.584 21.2558C128.584 21.7753 128.584 22.2931 128.453 22.9413H120.692C120.821 22.2931 120.951 21.7736 121.209 21.2558ZM65.5859 37.4613L69.9842 16.7187H74.1236L75.1576 12.3102H70.8896L73.3468 0.773752H67.5253L59.7643 37.463H65.5859V37.4613ZM72.1825 24.7571C71.9236 26.0534 71.9236 27.3498 71.9236 28.5174V29.4245C72.0539 30.8494 72.3128 32.2761 72.8289 33.4421C73.4148 34.6536 74.3652 35.6513 75.5468 36.2953C76.8397 37.0737 78.3916 37.3327 80.0737 37.3327C81.7559 37.3327 83.438 37.0721 84.7309 36.2953C86.0239 35.6471 87.3185 34.7384 88.2239 33.5724C89.2596 32.535 90.0346 31.2387 90.8114 29.6834C91.4579 28.2568 92.1043 26.7016 92.4936 25.0161C92.7525 23.7198 92.8811 22.5538 92.8811 21.2574C92.8811 20.9968 92.8811 20.6093 92.7525 20.3487C92.6222 18.9238 92.3633 17.6274 91.8454 16.4598C91.3293 15.1634 90.4239 14.2564 89.2596 13.4779C88.0953 12.6994 86.6703 12.3102 84.9899 12.3102C83.1791 12.3102 81.6273 12.6994 80.0737 13.3493C78.6522 13.9974 77.3576 15.0348 76.3219 16.0705C75.2879 17.2382 74.3825 18.5345 73.736 19.9611C73.1205 21.5265 72.6017 23.1282 72.1825 24.7571ZM77.3576 29.4245C77.3576 28.5158 77.4862 27.3498 77.7468 25.9231L78.1343 24.2393C78.3933 22.6824 78.7808 21.3861 79.2986 20.479C79.8148 19.4416 80.204 18.6648 80.7202 18.1453C81.238 17.6274 81.7559 17.2382 82.2737 17.1079C82.7899 16.849 83.3077 16.849 83.9542 16.849H84.472C85.1202 16.849 85.5077 16.9793 85.8953 17.1079C86.2845 17.2382 86.5417 17.4971 86.8006 18.0167C87.0596 18.4059 87.1899 19.1827 87.3185 20.0898V20.3487C87.3185 21.2574 87.1899 22.4234 86.8006 23.8501L86.4114 25.5339C86.1958 26.8191 85.8499 28.079 85.3791 29.2942C84.8613 30.3316 84.472 31.1101 83.9559 31.4976C83.438 32.0171 82.9202 32.4064 82.4023 32.535C81.8845 32.7939 81.3683 32.7939 80.7202 32.7939H80.204C79.6862 32.7939 79.1683 32.6653 78.7808 32.535C78.263 32.4064 78.1343 32.0171 77.7451 31.6279C77.4862 31.2387 77.3576 30.4602 77.3576 29.4245ZM9.05264 24.109C10.4742 25.0161 12.4153 25.5339 14.6153 25.5339C17.9779 25.5339 20.953 24.3662 23.4119 22.1645C25.7405 19.9594 27.4226 16.9776 28.3263 13.219V13.0887C28.5853 11.921 28.5853 10.755 28.5853 9.71929C28.5853 7.51421 28.0674 5.56975 27.0334 3.88421C25.4816 1.55221 22.8923 0.384521 19.5297 0.384521C16.0385 0.384521 12.9331 1.42191 10.4759 3.7556C8.01695 5.95898 6.33311 8.94083 5.42772 12.6994L0.384644 37.2024H6.3348L9.05264 24.109ZM11.1223 14.6456L11.6385 12.3102C11.8693 11.0383 12.3066 9.81266 12.9331 8.68191C13.451 7.77314 14.0974 6.99637 14.7439 6.47683C15.357 5.9654 16.0584 5.57025 16.8136 5.31083C17.46 5.05191 18.1065 5.05191 18.6243 5.05191H19.1422C19.7886 5.05191 20.3065 5.18052 20.8243 5.31083C21.4708 5.56975 21.8583 5.82867 22.2459 6.34821C22.5065 6.86606 22.894 7.51591 23.0243 8.42298C23.0243 8.68191 23.153 9.07114 23.153 9.45867C23.153 10.2371 23.0226 11.1442 22.894 12.0513L22.3762 13.6082C22.1173 15.0331 21.5994 16.3294 21.0833 17.3668C20.5654 18.2756 19.919 19.0524 19.2725 19.5719C18.6863 20.0538 18.0322 20.4467 17.3314 20.7379C16.685 20.8682 16.0368 20.9968 15.5206 20.9968H14.8708C14.3546 20.9968 13.8368 20.8682 13.1903 20.7379C12.6725 20.6076 12.285 20.2201 11.7671 19.8308C11.5082 19.3113 11.1206 18.7934 10.9903 17.8847C10.8617 17.4954 10.8617 17.1079 10.8617 16.5901C10.8617 16.0705 10.9903 15.4224 11.1206 14.6439L11.1223 14.6456ZM49.4125 37.2024L52.259 23.7197C52.6482 22.2931 53.0357 20.9951 53.5536 20.0898C54.2 19.0524 54.8465 18.4042 55.3643 17.8847C55.9952 17.3995 56.6921 17.0068 57.434 16.7187C58.0805 16.4598 58.7269 16.4598 59.2448 16.4598H60.4091C60.668 16.4598 60.927 16.5884 61.1859 16.5884L61.961 16.849L62.8663 12.6994L61.961 12.5708C61.702 12.4405 61.3145 12.4405 61.0556 12.4405H60.2788C56.5286 12.4405 53.425 13.6082 50.966 15.9402C48.5071 18.2756 46.9553 21.3861 46.0499 25.4036L43.4623 37.4613H49.4125V37.2024ZM181.221 14.2124C182.773 14.2124 184.261 13.596 185.358 12.4989C186.455 11.4017 187.072 9.91366 187.072 8.36206C187.072 6.81046 186.455 5.32241 185.358 4.22527C184.261 3.12812 182.773 2.51175 181.221 2.51175C179.67 2.51175 178.182 3.12812 177.084 4.22527C175.987 5.32241 175.371 6.81046 175.371 8.36206C175.371 9.91366 175.987 11.4017 177.084 12.4989C178.182 13.596 179.67 14.2124 181.221 14.2124ZM181.221 13.681C181.928 13.6935 182.629 13.5651 183.286 13.3034C183.942 13.0417 184.539 12.6519 185.043 12.1567C185.547 11.6616 185.947 11.071 186.221 10.4195C186.494 9.76794 186.634 9.06852 186.634 8.36204C186.634 7.65557 186.493 6.9562 186.22 6.30475C185.947 5.65331 185.546 5.06286 185.042 4.56786C184.538 4.07286 183.94 3.68324 183.284 3.42174C182.628 3.16025 181.926 3.03212 181.22 3.04483C179.826 3.06992 178.497 3.64136 177.52 4.63614C176.543 5.63092 175.996 6.9695 175.996 8.36374C175.997 9.75797 176.544 11.0964 177.521 12.0908C178.499 13.0853 179.827 13.6563 181.221 13.681Z" fill="#8CBD57"/>
<path d="M181.115 8.87995H180.218V11.0207H179.092V5.17041H181.121C181.766 5.17041 182.265 5.32441 182.616 5.63241C182.964 5.94041 183.14 6.37703 183.14 6.93887C183.14 7.33826 183.059 7.67164 182.897 7.93903C182.72 8.21815 182.465 8.43893 182.164 8.57364L183.347 10.9649V11.0207H182.138L181.115 8.87995ZM180.218 7.90349H181.125C181.407 7.90349 181.627 7.82733 181.781 7.67333C181.861 7.58832 181.923 7.48794 181.964 7.37828C182.004 7.26862 182.021 7.15195 182.015 7.03533C182.028 6.79761 181.949 6.56397 181.793 6.3838C181.648 6.22641 181.424 6.14687 181.121 6.14687H180.218V7.90349Z" fill="#8CBD57"/>
</svg>
