<svg width="200" height="43" viewBox="0 0 200 43" fill="none" xmlns="http://www.w3.org/2000/svg">
<g clip-path="url(#clip0)">
<path d="M193.663 9.90099C193.663 9.50495 194.059 9.24092 194.455 9.24092C194.851 9.24092 195.116 9.50495 195.116 9.90099C195.116 10.297 194.851 10.6931 194.455 10.6931C193.927 10.5611 193.663 10.297 193.663 9.90099ZM193.663 11.8812C193.663 11.4851 194.059 11.0891 194.455 11.0891C194.851 11.0891 195.116 11.3531 195.116 11.8812C195.116 12.2772 194.851 12.5413 194.455 12.5413C193.927 12.5413 193.663 12.2772 193.663 11.8812ZM195.776 12.4092C196.172 12.0132 196.304 11.4851 196.304 10.8251C196.304 10.297 196.172 9.76898 195.776 9.24092L196.436 8.71287C196.964 9.24092 197.36 10.033 197.36 10.8251C197.228 11.7492 196.964 12.4092 196.436 12.9373L195.776 12.4092ZM191.419 10.8251C191.419 12.8053 193.267 14.6535 195.248 14.6535C197.36 14.6535 199.076 12.8053 199.076 10.8251C199.076 8.84488 197.492 6.9967 195.248 6.9967C193.135 6.9967 191.419 8.84488 191.419 10.8251ZM190.627 10.8251C190.627 8.31683 192.739 6.07261 195.38 6.07261C198.02 6.07261 200.132 8.31683 200.132 10.8251C200.132 13.3333 198.152 15.5776 195.38 15.5776C192.739 15.4455 190.627 13.3333 190.627 10.8251ZM15.8416 31.4191V30.6271C15.8416 30.4951 15.8416 30.495 15.8416 30.231C15.8416 29.3069 15.8416 28.6469 15.8416 27.7228V19.538C15.7096 19.1419 15.4455 19.0099 14.9175 19.0099C12.0132 19.0099 9.10891 19.0099 6.20462 19.0099C5.67657 19.0099 5.54455 19.1419 5.54455 19.67C5.54455 23.1023 5.54455 26.5347 5.54455 29.967C5.54455 30.099 5.54455 30.099 5.54455 30.363V30.8911H4.88449H4.75248H4.48845H0V3.9604H5.80858V4.48845C5.80858 4.62046 5.80858 4.62046 5.80858 4.62046C5.80858 6.07261 5.80858 7.26073 5.80858 8.58086V13.5974C5.80858 13.7294 6.20462 13.9934 6.46865 13.9934C9.37294 13.9934 12.0132 13.9934 14.9175 13.9934C15.4455 13.9934 15.8416 13.8614 15.8416 13.4653V7.39274C15.8416 6.46865 15.8416 5.54455 15.8416 4.75248V4.48845V3.9604H21.6502V31.0231H20.9901H20.8581C20.7261 31.0231 20.462 31.0231 20.33 31.0231V31.4191H15.8416ZM132.541 31.4191V11.0891H138.218V31.2871H132.541V31.4191ZM159.34 31.5512C157.888 31.5512 156.568 31.4191 155.38 30.6271C153.003 29.1749 151.815 27.1947 151.815 24.4224C151.815 23.7624 151.815 23.1023 151.815 22.4422V15.0495C151.815 14.9175 151.815 14.6535 151.683 14.6535H147.855C147.723 14.7855 147.723 14.7855 147.723 14.7855V31.0231H142.046V15.0495C142.046 14.9175 141.914 14.9175 141.914 14.9175H139.142V14.2574C139.142 14.1254 139.142 14.1254 139.142 14.1254C139.142 13.3333 139.142 12.5413 139.142 11.7492V11.4851V10.9571H141.914C142.046 10.9571 142.31 10.5611 142.31 10.297C142.31 8.31683 143.234 6.46865 145.083 5.41254C146.403 4.75248 147.591 4.35644 149.043 4.09241C151.023 3.69637 150.891 3.69637 150.891 5.67657C150.891 6.20462 150.891 6.73267 150.891 7.26073C150.891 7.78878 150.759 8.18482 149.967 8.18482C148.647 8.18482 147.987 8.84488 147.591 10.033C147.459 10.5611 147.591 10.9571 147.987 10.9571H151.815L151.947 10.8251V0H157.228C157.228 1.58416 157.228 7.92079 157.228 9.50495C157.228 9.63696 157.228 9.90099 157.228 10.033C157.228 10.165 157.228 10.165 157.228 10.165V10.297C157.228 10.6931 157.36 10.8251 157.624 10.8251H167.921V11.6172C167.921 11.7492 167.921 11.7492 167.921 11.7492C167.921 12.4092 167.921 13.3333 167.921 14.1254C167.921 14.2574 167.921 14.2574 167.921 14.2574V14.9175H157.624C157.492 14.9175 157.492 15.0495 157.492 15.4455C157.492 18.0858 157.492 20.9901 157.492 23.7624C157.492 25.6106 158.812 26.7987 160.396 26.7987C161.848 26.7987 163.036 25.4785 163.3 23.7624C163.3 23.7624 163.3 23.6304 163.3 23.3663V21.5182H168.317V23.7624C168.317 25.8746 167.789 27.8548 165.941 29.571C164.356 31.1551 162.64 31.5512 160.66 31.5512C160 31.5512 159.604 31.5512 159.34 31.5512ZM34.7195 21.6502C34.1914 22.0462 33.6634 22.1782 33.1353 22.3102C32.4752 22.4422 31.5512 22.7063 30.6271 22.8383C29.703 22.9703 28.6469 23.4984 28.5149 24.6865C28.1188 26.5347 29.0429 27.5908 30.8911 27.7228C31.4191 27.5908 31.8152 27.5908 32.3432 27.3267C34.7195 26.4026 35.9076 24.4224 35.6436 21.9142C35.6436 21.5182 35.5116 21.3861 35.2475 21.3861C34.9835 21.5182 34.8515 21.5182 34.7195 21.6502ZM24.9505 30.363C23.6304 29.4389 22.9703 28.1188 23.1023 26.4026C23.1023 25.4785 23.1023 24.5545 23.2343 23.6304C23.7624 21.6502 24.8185 20.5941 26.6667 19.802C28.2508 19.1419 30.099 18.8779 31.9472 18.7459C32.7393 18.7459 33.5314 18.6139 34.3234 18.2178C35.1155 18.0858 35.6436 17.5578 35.6436 16.6337C35.5116 15.8416 34.9835 15.1815 34.0594 15.0495C33.0033 14.9175 31.9472 14.9175 30.7591 15.0495C29.703 15.1815 29.1749 15.9736 28.9109 16.8977C28.7789 17.5578 28.1188 17.8218 27.4587 17.8218C26.5347 17.8218 25.4785 17.8218 24.5545 17.8218C23.6304 17.8218 23.4984 17.8218 23.6304 16.8977C24.0264 13.9934 25.4785 11.8812 29.1749 11.0891C31.4191 10.5611 33.3993 10.5611 35.6436 10.9571C38.9439 11.4851 40.6601 13.8614 40.9241 17.1617C40.9241 17.2937 40.9241 17.6898 40.9241 17.9538V18.3498C40.9241 21.9142 40.9241 25.6106 40.9241 29.1749C40.9241 29.3069 40.9241 29.3069 40.9241 29.571C40.9241 30.099 40.9241 30.4951 40.9241 30.6271V31.0231H35.9076V30.6271C35.6436 30.363 35.6436 30.099 35.6436 29.967C35.6436 29.835 35.5116 29.571 35.5116 29.571C34.4554 30.099 33.5314 30.6271 32.6073 31.0231C31.4191 31.4191 30.363 31.6832 29.3069 31.6832C27.7228 31.6832 26.2706 31.2871 24.9505 30.363ZM174.785 31.1551C172.277 30.363 170.429 28.6469 169.769 26.1386C169.373 25.0825 169.769 24.8185 170.825 24.8185C171.353 24.8185 171.881 24.8185 172.409 24.8185C172.937 24.6865 173.729 24.6865 174.257 24.6865C174.653 24.5545 174.917 24.6865 175.182 25.2145C175.71 26.7987 177.03 27.5908 178.614 27.5908C179.538 27.5908 180.726 27.7228 181.65 27.0627C182.706 26.4026 182.97 25.0825 181.65 24.2904C181.122 23.7624 180.198 23.6304 179.538 23.3663C177.558 22.8383 175.578 22.3102 173.729 21.5182C170.957 20.198 170.165 18.4818 170.297 15.7096C170.429 13.2013 172.145 11.8812 174.521 11.2211C177.558 10.297 180.726 10.165 183.762 11.3531C185.347 12.0132 186.667 13.3333 187.063 15.3135V15.4455C187.459 17.2937 187.459 17.2937 185.611 17.2937C184.686 17.2937 183.762 17.2937 182.838 17.2937C182.31 17.2937 181.914 17.1617 181.782 16.6337C181.386 15.3135 180.33 14.6535 178.878 14.6535C177.954 14.6535 177.294 14.7855 176.37 15.0495C175.578 15.1815 175.05 15.5776 175.05 16.3696C174.917 16.8977 175.446 17.4257 175.974 17.6898C177.03 18.0858 178.086 18.3498 179.274 18.7459C181.122 19.4059 183.102 20.066 185.083 20.7261C186.667 21.5182 187.459 22.8383 188.383 24.6865C188.383 28.5149 186.007 31.0231 182.178 31.5512C181.122 31.6832 180.066 31.8152 179.142 31.8152C177.558 31.8152 176.238 31.6832 174.785 31.1551ZM109.967 28.9109C108.515 27.4587 107.459 25.6106 106.667 23.6304C105.743 21.6502 105.347 19.2739 105.611 17.1617C105.743 12.4092 107.459 8.31683 111.551 5.41254C113.927 3.82838 116.436 3.56436 119.076 3.56436C121.32 3.56436 123.3 3.9604 125.016 4.88449C127.921 6.33663 129.769 8.71287 130.429 11.7492C130.561 12.4092 130.429 12.8053 129.637 12.8053C128.185 12.8053 126.997 12.8053 125.545 12.8053C125.017 12.8053 124.62 12.8053 124.488 11.8812C123.96 9.76898 122.112 8.58086 120.132 8.0528C117.756 7.26073 113.927 8.71287 112.739 11.4851C111.551 14.2574 110.891 17.0297 111.683 20.198C112.079 21.7822 112.607 23.4984 113.663 24.6865C115.116 26.6667 117.228 27.4587 119.604 27.0627C122.112 26.6667 123.96 25.0825 124.884 22.5743C125.017 22.1782 125.281 21.9142 125.016 21.6502C125.016 21.6502 124.884 21.5182 124.62 21.2541H118.944V20.5941C118.944 20.5941 118.944 20.462 118.944 20.198C118.944 19.2739 118.944 18.2178 118.944 17.2937V17.1617H119.076V16.7657H130.693V21.6502C130.693 24.5545 130.693 31.4191 130.693 31.4191H125.809C125.809 31.4191 125.809 29.571 125.809 29.3069C125.809 29.3069 125.677 29.1749 125.413 29.1749C125.017 29.571 124.884 29.835 124.488 30.231C122.904 31.5512 121.056 32.0792 119.076 32.2112C118.68 32.2112 118.152 32.3432 117.756 32.3432C114.719 32.2112 112.079 31.0231 109.967 28.9109ZM87.5248 39.4719C84.4885 38.1518 83.1683 35.2475 83.0363 32.4752C83.0363 32.0792 83.4323 31.6832 83.5644 31.6832C84.8845 31.6832 86.0726 31.6832 87.3927 31.6832C87.7888 31.6832 88.1848 32.2112 88.1848 32.4752C88.3168 34.3234 90.033 35.7756 92.1452 35.7756C93.9934 35.7756 95.5776 34.1914 95.7096 32.4752C95.7096 31.4191 95.8416 30.099 95.8416 29.0429C95.8416 28.9109 95.7096 28.9109 95.7096 28.9109C95.4455 29.0429 95.3135 29.0429 95.0495 29.1749C94.1254 30.4951 92.9373 30.7591 91.4852 31.0231C86.9967 31.6832 83.1683 28.2508 83.1683 24.0264C83.1683 22.0462 83.1683 20.198 83.1683 18.2178V15.1815C83.1683 14.1254 83.1683 13.0693 83.1683 11.8812C83.1683 11.7492 83.1683 11.7492 83.1683 11.4851V10.9571H83.6964C83.8284 10.9571 84.0924 10.9571 84.2244 10.9571C85.5446 10.9571 86.6007 10.9571 87.6568 10.9571C87.7888 10.9571 88.0528 10.9571 88.1848 10.9571H88.5809V11.3531C88.5809 11.4851 88.5809 11.7492 88.5809 11.8812C88.5809 15.3135 88.5809 18.8779 88.5809 22.3102C88.5809 22.9703 88.5809 23.6304 88.7129 24.2904C88.8449 25.6106 90.165 26.4026 91.4852 26.6667C92.9373 26.7987 94.2574 26.2706 95.0495 25.0825C95.4455 24.2904 95.8416 23.4984 95.8416 22.7063C95.8416 21.2541 95.8416 19.67 95.8416 18.2178V10.9571H96.3696C96.5016 10.9571 96.7657 10.9571 97.0297 10.9571C97.9538 10.9571 99.0099 10.9571 99.934 10.9571C100.33 10.9571 100.462 10.9571 100.594 10.9571H100.99V11.3531C100.99 11.4851 100.99 11.7492 100.99 12.1452C100.99 16.6337 100.99 21.1221 100.99 25.4785C100.99 27.8548 100.99 30.231 100.99 32.4752C100.858 36.4356 96.8977 39.868 93.3333 40.132C92.6733 40.132 92.0132 40.264 91.3531 40.264C90.165 40.132 88.8449 40 87.5248 39.4719ZM68.9109 16.7657C68.1188 18.0858 68.1188 19.4059 68.1188 21.2541C68.1188 21.7822 68.1188 22.7063 68.2508 23.6304C68.3828 25.2145 69.703 26.6667 71.0231 26.9307C73.3993 27.0627 74.8515 26.4026 75.3795 24.4224C76.1716 22.0462 75.9076 19.67 75.2475 17.4257C74.7195 15.8416 73.3993 14.9175 71.9472 14.9175C70.495 14.7855 69.571 15.7096 68.9109 16.7657ZM62.5743 42.6403V10.9571H63.1023C63.2343 10.9571 63.4984 10.9571 63.6304 10.9571C64.6865 10.9571 65.7426 10.9571 66.9307 10.9571C67.0627 10.9571 67.3267 10.9571 67.4587 10.9571H67.9868V12.8053C68.3828 12.6733 68.5149 12.6733 68.6469 12.4092C70.099 10.429 72.2112 10.429 74.4554 10.5611C78.0198 11.0891 80.132 14.1254 80.7921 16.8977C81.3201 19.4059 81.4521 21.9142 80.396 24.6865C79.868 26.6667 79.0759 28.6469 77.3597 30.099C74.5875 32.2112 70.099 31.6832 68.3828 29.1749C68.3828 29.0429 68.2508 28.7789 67.8548 28.6469C67.8548 28.7789 67.8548 29.0429 67.8548 29.0429V42.6403H62.5743ZM50.033 16.3696C49.1089 17.6898 48.8449 19.2739 48.9769 20.8581C48.9769 20.9901 48.9769 20.9901 48.9769 21.2541C48.9769 22.7063 49.1089 24.1584 49.901 25.4785C50.8251 27.0627 52.4092 27.0627 53.8614 26.9307C55.1815 26.5347 56.1056 25.6106 56.2376 24.4224C56.3696 22.9703 56.6337 21.3861 56.6337 19.934C56.6337 18.4818 56.2376 17.0297 55.1815 15.9736C54.5215 15.3135 53.5974 15.0495 52.8053 15.0495C51.7492 14.9175 50.6931 15.3135 50.033 16.3696ZM43.5644 42.7723V42.2442C43.5644 42.2442 43.5644 42.1122 43.5644 41.8482C43.5644 31.9472 43.5644 21.9142 43.5644 12.0132C43.5644 11.8812 43.5644 11.6172 43.5644 11.4851V10.9571H44.0924C44.2244 10.9571 44.4884 10.9571 44.6205 10.9571C45.6766 10.9571 46.6007 10.9571 47.6568 10.9571C48.0528 10.9571 48.1848 10.9571 48.3168 10.9571H48.8449V12.8053H48.9769C49.1089 12.6733 49.3729 12.4092 49.505 12.2772C50.165 10.9571 51.4851 10.6931 52.9373 10.429C57.9538 9.90099 60.8581 13.4653 61.6502 17.2937C62.1782 19.802 62.1782 22.5743 61.6502 25.0825C60.8581 29.1749 57.4257 32.0792 53.2013 31.4191C51.8812 31.2871 50.8251 30.6271 49.769 29.571C49.637 29.4389 49.3729 29.1749 49.2409 28.9109C49.2409 29.0429 49.1089 29.0429 49.1089 29.0429C48.8449 29.0429 48.8449 29.1749 48.8449 29.1749V36.1716C48.8449 37.6238 48.8449 39.0759 48.8449 40.5281C48.8449 40.9241 48.8449 41.4521 48.8449 41.9802C48.8449 42.1122 48.8449 42.1122 48.8449 42.3762V42.7723H43.5644Z" fill="black"/>
</g>
<defs>
<clipPath id="clip0">
<rect width="200" height="42.7723" fill="white"/>
</clipPath>
</defs>
</svg>
