<svg width="150" height="54" viewBox="0 0 150 54" fill="none" xmlns="http://www.w3.org/2000/svg">
<path d="M20.317 32.479C45.775 30.046 47.956 5.39502 47.956 5.39502C22.097 8.73302 20.317 32.479 20.317 32.479Z" fill="#DC0A1E"/>
<path d="M126.106 13.5329C125.545 12.9719 125.264 12.3039 125.264 11.5279C125.264 10.7529 125.545 10.0849 126.106 9.52291C126.667 8.96191 127.335 8.68091 128.111 8.68091C128.886 8.68091 129.554 8.96191 130.115 9.52291C130.676 10.0839 130.957 10.7529 130.957 11.5279C130.957 12.3039 130.677 12.9709 130.115 13.5329C129.554 14.0939 128.885 14.3749 128.111 14.3749C127.335 14.3749 126.667 14.0939 126.106 13.5329Z" fill="#DC0A1E"/>
<path d="M49.461 13.161C48.373 16.291 46.623 19.982 43.907 23.511C44.085 24.508 44.22 25.52 44.22 26.565C44.22 36.3 36.299 44.217 26.567 44.217C16.835 44.217 8.913 36.3 8.913 26.565C8.913 16.833 16.834 8.913 26.567 8.913C27.633 8.913 28.665 9.046 29.684 9.229C32.495 7.013 35.951 5.12 40.138 3.771C36.16 1.393 31.529 0 26.567 0C11.917 0 0 11.917 0 26.565C0 41.214 11.917 53.131 26.567 53.131C41.217 53.131 53.135 41.214 53.135 26.565C53.135 21.673 51.781 17.1 49.461 13.161Z" fill="#1E1E1E"/>
<path d="M71.702 17.4619C68.495 17.4619 65.822 18.5249 63.683 20.6489C61.544 22.7739 60.476 25.3739 60.476 28.4469C60.476 31.5209 61.545 34.1199 63.683 36.2449C65.821 38.3699 68.494 39.4319 71.702 39.4319C74.91 39.4319 77.582 38.3699 79.721 36.2449C81.859 34.1199 82.928 31.5209 82.928 28.4469C82.928 25.3739 81.859 22.7739 79.721 20.6489C77.581 18.5239 74.909 17.4619 71.702 17.4619ZM76.533 33.4789C75.263 34.7749 73.653 35.4239 71.702 35.4239C69.751 35.4239 68.14 34.7759 66.871 33.4789C65.601 32.1829 64.967 30.5059 64.967 28.4469C64.967 26.3889 65.602 24.7119 66.871 23.4149C68.14 22.1189 69.751 21.4709 71.702 21.4709C73.653 21.4709 75.263 22.1189 76.533 23.4149C77.802 24.7119 78.437 26.3889 78.437 28.4469C78.437 30.5049 77.802 32.1829 76.533 33.4789Z" fill="#1E1E1E"/>
<path d="M100.909 19.3659C99.318 18.0969 97.267 17.4619 94.755 17.4619C91.467 17.4619 88.527 18.4909 85.935 20.5489L87.939 23.3549C90.077 21.9119 92.135 21.1899 94.113 21.1899C97.267 21.1899 98.844 22.6069 98.844 25.4399V26.2409H93.03C90.384 26.2409 88.286 26.7619 86.736 27.8049C85.185 28.8479 84.411 30.4179 84.411 32.5159C84.411 34.6149 85.139 36.2919 86.596 37.5479C88.052 38.8049 89.89 39.4319 92.109 39.4319C95.076 39.4319 97.441 38.3769 99.205 36.2649V39.1109H103.294V25.3599C103.294 22.6339 102.499 20.6359 100.909 19.3659ZM98.804 31.1729C98.804 32.5359 98.269 33.6189 97.2 34.4199C96.131 35.2219 94.881 35.6229 93.451 35.6229C92.02 35.6229 90.905 35.3489 90.103 34.8009C89.301 34.2539 88.9 33.4579 88.9 32.4159C88.9 30.3849 90.517 29.3689 93.751 29.3689H98.803V31.1729H98.804Z" fill="#1E1E1E"/>
<path d="M120.573 28.2469C119.851 27.7659 119.176 27.3919 118.548 27.1249C117.92 26.8579 117.271 26.6169 116.603 26.4029C115.935 26.1899 115.166 25.9759 114.298 25.7619C113.429 25.5479 112.754 25.3209 112.273 25.0799C111.578 24.7589 111.23 24.2519 111.23 23.5559C111.23 22.7809 111.564 22.1999 112.233 21.8119C112.901 21.4249 113.769 21.2309 114.839 21.2309C116.87 21.2309 118.754 21.8059 120.492 22.9549L122.176 19.6279C119.984 18.1849 117.659 17.4629 115.2 17.4629C112.741 17.4629 110.743 18.0579 109.206 19.2469C107.669 20.4369 106.901 22.0199 106.901 23.9979C106.901 26.8039 109.119 28.8089 113.556 30.0119C113.662 30.0389 113.823 30.0919 114.037 30.1719C116.87 31.0279 118.287 31.9899 118.287 33.0589C118.287 33.7809 117.993 34.3759 117.405 34.8429C116.817 35.3109 116.015 35.5449 114.999 35.5449C112.674 35.5449 110.268 34.6099 107.782 32.7379L105.617 36.2259C106.9 37.2419 108.376 38.0299 110.047 38.5909C111.717 39.1519 113.328 39.4329 114.878 39.4329C117.176 39.4329 119.06 38.8249 120.531 37.6089C122.001 36.3929 122.736 34.7689 122.736 32.7379C122.738 30.7059 122.017 29.2089 120.573 28.2469Z" fill="#1E1E1E"/>
<path d="M130.315 17.782H125.825V39.111H130.315V17.782Z" fill="#1E1E1E"/>
<path d="M147.835 28.2469C147.113 27.7659 146.438 27.3919 145.81 27.1249C145.182 26.8579 144.533 26.6169 143.865 26.4029C143.197 26.1899 142.428 25.9759 141.56 25.7619C140.691 25.5479 140.016 25.3209 139.535 25.0799C138.84 24.7589 138.492 24.2519 138.492 23.5559C138.492 22.7809 138.826 22.1999 139.495 21.8119C140.163 21.4249 141.031 21.2309 142.101 21.2309C144.132 21.2309 146.016 21.8059 147.754 22.9549L149.438 19.6279C147.246 18.1849 144.921 17.4629 142.462 17.4629C140.003 17.4629 138.005 18.0579 136.468 19.2469C134.931 20.4369 134.163 22.0199 134.163 23.9979C134.163 26.8039 136.381 28.8089 140.818 30.0119C140.924 30.0389 141.085 30.0919 141.299 30.1719C144.132 31.0279 145.549 31.9899 145.549 33.0589C145.549 33.7809 145.255 34.3759 144.667 34.8429C144.079 35.3109 143.277 35.5449 142.261 35.5449C139.936 35.5449 137.53 34.6099 135.044 32.7379L132.879 36.2259C134.162 37.2419 135.638 38.0299 137.309 38.5909C138.979 39.1519 140.59 39.4329 142.14 39.4329C144.438 39.4329 146.322 38.8249 147.793 37.6089C149.263 36.3929 149.998 34.7689 149.998 32.7379C150 30.7059 149.279 29.2089 147.835 28.2469Z" fill="#1E1E1E"/>
</svg>
