<svg width="188" height="31" viewBox="0 0 188 31" fill="none" xmlns="http://www.w3.org/2000/svg">
<path d="M81.048 22.971H100.645L101.223 20.805L83.934 20.802C83.027 20.802 82.672 20.561 82.889 19.755C83.206 18.568 83.816 16.325 84.028 15.536C84.127 15.836 84.628 16.036 85.428 16.055H99.913C101.914 16.055 102.816 15.762 103.357 13.747C103.439 13.443 104.787 8.388 104.974 7.703C105.298 6.514 104.836 5.514 102.984 5.512L85.01 5.5C82.695 5.491 81.674 5.877 81.202 7.665C80.488 10.362 78.197 18.871 78.197 18.871C77.667 20.9 77.9 23 81 22.971H81.048ZM84.832 12.443C85.071 11.548 85.445 10.14 85.767 8.973C86.141 7.606 86.742 7.6 87.71 7.6H98.811C99.618 7.6 99.811 8.1 99.61 8.918C99.383 9.753 99.014 11.119 98.729 12.195C98.344 13.634 98.004 13.748 96.79 13.748H85.77C84.909 13.7 84.6 13.3 84.8 12.443H84.832ZM107.736 22.971L112.41 5.511L107.49 5.517L102.81 22.971H107.736ZM111.359 15.532C113.693 17.132 122.259 22.931 122.259 22.97H130.668C130.668 22.97 119.456 15.303 117.285 13.807C116.597 13.332 116.117 12.913 116.865 12.395C119.011 10.916 126.957 5.487 126.957 5.487H123.115C121.364 6.639 113.11 12.354 111.677 13.322C110.582 14.1 110.499 14.9 111.4 15.532H111.359ZM18.812 22.952H23.733C24.46 20.25 27.392 9.276 27.392 9.276C27.853 7.553 26.736 5.507 23.661 5.507L9.364 5.499C5.307 5.499 4.415 6.509 3.63 9.399C2.942 12 0.8 20.1 0 22.971H4.925C5.693 22.971 8.033 11.362 8.289 10.383C8.825 8.368 8.811 7.601 10.296 7.601H21.496C22.162 7.601 22.796 7.801 22.496 9.187C22.222 10.2 19.4 20.9 18.8 22.952H18.812ZM32.496 23C35.285 23 43.996 23 45.696 23.018C48.336 23.018 49.396 23.018 50.276 19.716L53.043 9.365C53.685 7.008 52.393 5.562 49.316 5.562L35.06 5.559C30.999 5.559 30.196 6.062 29.281 9.505L23.6 30.699H28.535L30.788 22.286C31.019 22.6 31.6 23 32.5 22.957L32.496 23ZM32.007 17.865C32.485 16.099 33.702 11.535 34.243 9.509C34.557 8.328 34.848 7.601 35.988 7.601H47.188C47.853 7.601 48.488 8.001 48.188 9.301C47.845 10.59 45.564 19.126 45.564 19.126C45.221 20.423 44.858 20.857 43.491 20.857H33.833C31.756 20.9 31.5 19.6 32 17.865H32.007ZM128.254 7.6H136.009C137.02 7.6 137.409 8.2 137.11 9.148C136.432 11.655 133.416 22.97 133.416 22.97H138.339C138.339 22.97 141.325 11.791 142.047 9.143C142.318 8.133 143.009 7.669 144.214 7.669L151.609 7.665L152.187 5.486H128.911L128.254 7.6ZM185.161 0.0359998L180.023 3.736C181.65 3.736 182.023 4.136 181.824 5C180.939 8.268 177.012 22.968 177.012 22.968H181.712L188 0.000999928L185.161 0.0359998ZM174.421 0L169.283 3.704C170.907 3.704 171.283 4.104 171.083 4.966C170.2 8.234 166.271 22.934 166.271 22.934H170.967L177.262 0L174.421 0.0370002V0ZM163.68 0.0359998L158.54 3.739C160.165 3.739 160.54 4.139 160.34 5.003C159.46 8.271 155.531 22.971 155.531 22.971H160.228L166.501 0.000999928L163.68 0V0.0359998ZM78.798 9.309C79.402 7.119 79.103 5.488 76.072 5.488H59.39C56.551 5.488 55.967 6.087 55.336 8.435C54.563 11.274 53.32 15.88 52.409 19.234C51.704 21.835 52.909 22.935 55.509 22.935H71.448C74.101 22.935 75.272 22.433 76.168 19.083L78.798 9.309ZM73.91 9.2C73.562 10.495 71.439 18.439 71.439 18.439C70.942 20.299 70.541 20.814 69.071 20.814H58.851C57.64 20.814 57.009 20.441 57.446 18.713C57.903 16.941 59.442 11.381 59.989 9.366C60.406 7.838 60.849 7.644 61.932 7.647L72.888 7.637C73.809 7.7 74.3 7.9 73.9 9.242L73.91 9.2Z" fill="black"/>
</svg>
