<svg width="180" height="36" viewBox="0 0 180 36" fill="none" xmlns="http://www.w3.org/2000/svg">
<g clip-path="url(#clip0)">
<path fill-rule="evenodd" clip-rule="evenodd" d="M6.59486 35.3179H-0.00109863L12.5017 17.9109L0.489208 1.08812H7.59866L16.1293 13.3624L24.7097 1.09033H31.2957L6.59486 35.3179ZM176.687 0.000389196C176.03 -0.000921075 175.387 0.192821 174.84 0.557069C174.294 0.921317 173.867 1.43969 173.615 2.04652C173.363 2.65335 173.297 3.32133 173.424 3.96587C173.552 4.61041 173.869 5.20249 174.333 5.66714C174.798 6.13178 175.39 6.44807 176.035 6.57594C176.679 6.70381 177.347 6.63752 177.954 6.38545C178.561 6.13338 179.079 5.70688 179.443 5.15998C179.808 4.61307 180.001 3.97037 180 3.31327C179.996 2.43598 179.645 1.59586 179.025 0.975518C178.405 0.355174 177.564 0.00474307 176.687 0.000389196ZM159.071 -0.0106561C155.571 -0.0215776 152.147 1.00697 149.232 2.94462C146.317 4.88226 144.043 7.64174 142.698 10.8733C141.353 14.1048 140.998 17.6629 141.677 21.0965C142.357 24.5301 144.041 27.6846 146.515 30.1602C148.99 32.6358 152.143 34.3209 155.577 35.002C159.01 35.6832 162.568 35.3296 165.8 33.9861C169.033 32.6427 171.793 30.3698 173.732 27.4557C175.671 24.5416 176.701 21.1174 176.692 17.6172C176.719 15.2957 176.281 12.9921 175.406 10.8419C174.53 8.69167 173.234 6.73812 171.592 5.09602C169.951 3.45392 167.998 2.15638 165.848 1.27961C163.699 0.40285 161.395 -0.0354595 159.074 -0.00955242L159.071 -0.0106561ZM159.074 29.8252C152.364 29.8252 147.589 24.3037 147.589 17.6183C147.589 10.9329 152.272 5.50861 158.982 5.50861C165.692 5.50861 170.467 11.0301 170.467 17.7166C170.467 24.4031 165.783 29.8252 159.073 29.8252H159.074ZM123.121 1.08812L108.213 35.3489H114.314L117.8 27.1351H133.826L137.264 35.3489H143.558L128.65 1.08812H123.129H123.121ZM119.974 21.8389L125.785 8.2318L131.637 21.8389H119.974ZM110.429 18.1693C110.429 27.8606 103.002 35.3489 92.2539 35.3489H88.8085V29.8671H92.2539C99.4318 29.8671 104.126 25.0215 104.126 18.272C104.126 11.5226 99.4362 6.57426 92.2539 6.57426H85.5177V35.3489H79.5081V1.08812H92.2528C103.001 1.08812 110.428 8.47917 110.428 18.1693H110.429ZM34.221 1.08812H39.7546V35.3489H34.2254V1.08812H34.221ZM69.1719 24.7774V1.08812H75.092V35.3489H70.0565L51.1807 10.9738V35.3489H45.265V1.08812H50.8384L69.1719 24.7774ZM32.0179 35.2108H24.9295L17.8046 24.9762L21.2941 20.1383L32.0179 35.2108Z" fill="#ED1D24"/>
</g>
<defs>
<clipPath id="clip0">
<rect width="180" height="35.3374" fill="white"/>
</clipPath>
</defs>
</svg>
