<svg width="29" height="26" viewBox="0 0 29 26" fill="none" xmlns="http://www.w3.org/2000/svg">
<path fill-rule="evenodd" clip-rule="evenodd" d="M15.4952 20.1007C15.4952 20.1007 15.4951 20.1007 15.25 18.875L15.4952 20.1007C15.2819 20.1434 15.0611 20.1296 14.8547 20.0609L11.1047 18.8109C10.4498 18.5925 10.0958 17.8846 10.3141 17.2297C10.5325 16.5748 11.2404 16.2208 11.8953 16.4391L15.3311 17.5844L15.4124 17.5683C15.672 17.5168 16.044 17.4434 16.4944 17.3553C17.3948 17.1791 18.6091 16.9441 19.8634 16.7089C21.1163 16.474 22.415 16.2378 23.482 16.06C24.4894 15.8921 25.4335 15.75 25.875 15.75C26.3821 15.75 26.9471 15.8768 27.4013 16.2741C27.8772 16.6906 28.0625 17.2562 28.0625 17.7812C28.0625 18.7361 27.4799 19.6629 26.7589 20.3839C26.0814 21.0614 24.6049 22.3723 22.7961 23.5233C21.0222 24.6522 18.7405 25.75 16.5 25.75C14.4133 25.75 12.6912 25.2251 11.261 24.7484C11.1267 24.7036 10.9964 24.6599 10.8696 24.6174C9.57798 24.184 8.65677 23.875 7.75 23.875H1.5C0.809644 23.875 0.25 23.3154 0.25 22.625C0.25 21.9346 0.809644 21.375 1.5 21.375H7.75C9.0936 21.375 10.4233 21.8256 11.6259 22.2332C11.7696 22.2819 11.9116 22.33 12.0515 22.3766C13.4338 22.8374 14.8367 23.25 16.5 23.25C18.0095 23.25 19.7903 22.4728 21.4539 21.4142C23.0826 20.3777 24.4186 19.1886 24.9911 18.6161C25.0974 18.5098 25.1868 18.4087 25.261 18.3147C24.923 18.3606 24.4621 18.4311 23.893 18.526C22.8506 18.6997 21.5712 18.9323 20.3241 19.1661C19.0784 19.3997 17.8709 19.6334 16.9744 19.8088C16.5263 19.8964 16.1562 19.9695 15.8982 20.0206L15.4952 20.1007Z" fill="#009959"/>
<path fill-rule="evenodd" clip-rule="evenodd" d="M4.77642 14.1791C3.79557 14.7395 2.94494 15.4478 2.38388 16.0089C1.89573 16.497 1.10427 16.497 0.616117 16.0089C0.127961 15.5207 0.127961 14.7293 0.616117 14.2411C1.30506 13.5522 2.32943 12.698 3.53608 12.0084C4.73242 11.3248 6.20096 10.75 7.75 10.75C8.54371 10.75 9.51177 10.9415 10.4693 11.2049C11.4482 11.4743 12.5015 11.8431 13.4958 12.2489C14.4889 12.6543 15.4464 13.106 16.2301 13.5478C16.6214 13.7685 16.9848 13.9952 17.2936 14.2211C17.5863 14.4353 17.8978 14.6971 18.125 15C18.6875 15.75 18.6318 16.581 18.3979 17.2045C18.1811 17.7828 17.7879 18.2768 17.451 18.6362C17.0993 19.0113 16.724 19.3282 16.4462 19.5461C16.3051 19.6567 16.184 19.7459 16.0963 19.8086C16.0524 19.84 16.0167 19.865 15.9907 19.8829L15.9591 19.9045L15.9492 19.9112L15.9458 19.9135L15.9444 19.9144L15.9439 19.9147C15.9436 19.9149 15.9434 19.9151 15.25 18.875L15.9434 19.9151C15.369 20.298 14.5929 20.1428 14.2099 19.5684C13.8274 18.9945 13.9819 18.2194 14.555 17.8361C14.5551 17.836 14.5552 17.8359 14.5552 17.8359C14.5554 17.8357 14.5556 17.8356 14.5558 17.8355C14.5558 17.8355 14.5558 17.8355 14.5558 17.8355L14.5559 17.8354L14.5562 17.8352C14.5563 17.8351 14.5565 17.835 14.5566 17.8349L14.5569 17.8347L14.5721 17.8244C14.5868 17.8142 14.6105 17.7977 14.6417 17.7754C14.7042 17.7307 14.7955 17.6636 14.9034 17.5789C15.1236 17.4062 15.3929 17.1762 15.6271 16.9263C15.8317 16.7082 15.9587 16.5281 16.0235 16.4016C15.9712 16.356 15.9032 16.3016 15.8175 16.2388C15.6124 16.0888 15.3385 15.9151 15.0023 15.7256C14.3309 15.3471 13.4721 14.9395 12.5511 14.5636C11.6313 14.1881 10.6729 13.8538 9.8061 13.6154C8.91792 13.371 8.20629 13.25 7.75 13.25C6.79904 13.25 5.76758 13.6127 4.77642 14.1791Z" fill="#009959"/>
<path fill-rule="evenodd" clip-rule="evenodd" d="M8.48223 1.48223C8.95107 1.01339 9.58696 0.75 10.25 0.75H25.25C25.913 0.75 26.5489 1.01339 27.0178 1.48223C27.4866 1.95108 27.75 2.58696 27.75 3.25V13.25C27.75 13.9404 27.1904 14.5 26.5 14.5C25.8096 14.5 25.25 13.9404 25.25 13.25L25.25 3.25H10.25L10.25 8.25C10.25 8.94036 9.69036 9.5 9 9.5C8.30964 9.5 7.75 8.94036 7.75 8.25V3.25C7.75 2.58696 8.01339 1.95107 8.48223 1.48223Z" fill="#009959"/>
<path fill-rule="evenodd" clip-rule="evenodd" d="M13.375 2C13.375 1.30964 13.9346 0.75 14.625 0.75H20.875C21.5654 0.75 22.125 1.30964 22.125 2V7.625C22.125 8.31536 21.5654 8.875 20.875 8.875H14.625C13.9346 8.875 13.375 8.31536 13.375 7.625V2ZM15.875 3.25V6.375H19.625V3.25H15.875Z" fill="#009959"/>
</svg>
