<svg width="27" height="20" viewBox="0 0 27 20" fill="none" xmlns="http://www.w3.org/2000/svg">
<path d="M7.75 18.75C9.13071 18.75 10.25 17.6307 10.25 16.25C10.25 14.8693 9.13071 13.75 7.75 13.75C6.36929 13.75 5.25 14.8693 5.25 16.25C5.25 17.6307 6.36929 18.75 7.75 18.75Z" stroke="#009959" stroke-width="2" stroke-linecap="round" stroke-linejoin="round"/>
<path d="M20.25 18.75C21.6307 18.75 22.75 17.6307 22.75 16.25C22.75 14.8693 21.6307 13.75 20.25 13.75C18.8693 13.75 17.75 14.8693 17.75 16.25C17.75 17.6307 18.8693 18.75 20.25 18.75Z" stroke="#009959" stroke-width="2" stroke-linecap="round" stroke-linejoin="round"/>
<path d="M5.25 16.25H2.75V11.25M1.5 1.25H15.25V16.25M10.25 16.25H17.75M22.75 16.25H25.25V8.75M25.25 8.75H15.25M25.25 8.75L21.5 2.5H15.25" stroke="#009959" stroke-width="2" stroke-linecap="round" stroke-linejoin="round"/>
<path d="M2.75 6.25H7.75" stroke="#009959" stroke-width="2" stroke-linecap="round" stroke-linejoin="round"/>
</svg>
